# xmcd
#
# Track frame offsets: 
#        150
#        18099
#        37137
#        42493
#        51348
#        64664
#        87772
#        96945
#        101144
#        120766
#        137413
#        141868
#
# Disc length: 1975 seconds
#
# Revision: 0
# Processed by: cddbd v1.5.2PL0 Copyright (c) Steve Scherf et al.
# Submitted via: ExactAudioCopy v1.3
#
DISCID=9e07b50c
DTITLE=Mike Boguski - Blues for the Penitent
DYEAR=2019
DGENRE=Blues
TTITLE0=Exitus, #2
TTITLE1=Madawaska Moonlight
TTITLE2=Blues Piano, #2
TTITLE3=2013-2015
TTITLE4=To Live Is to Fly
TTITLE5=Blues Piano, #3
TTITLE6=Eva
TTITLE7=Blues Piano, #4
TTITLE8=On the Beach
TTITLE9=Crossing the Lake
TTITLE10=Blues Piano, #5
TTITLE11=Memorial
EXTD=
EXTT0=
EXTT1=
EXTT2=
EXTT3=
EXTT4=
EXTT5=
EXTT6=
EXTT7=
EXTT8=
EXTT9=
EXTT10=
EXTT11=
PLAYORDER=
